<svg width="1600" height="576" viewBox="0 0 1600 576" fill="none" xmlns="http://www.w3.org/2000/svg">
<g clip-path="url(#clip0)">
<rect width="1600" height="576" rx="25" fill="#0E2938"/>
<circle cx="799.971" cy="488.931" r="319" stroke="url(#paint0_linear)" stroke-opacity="0.24" stroke-width="4"/>
<circle cx="800" cy="489" r="480" stroke="url(#paint1_linear)" stroke-opacity="0.24" stroke-width="4"/>
<circle cx="461" cy="150" r="24" fill="#18FBB7"/>
<g clip-path="url(#clip1)">
<rect x="915" y="149" width="442" height="325" fill="url(#paint2_linear)" fill-opacity="0.16"/>
<rect x="1452" y="426" width="489" height="309" transform="rotate(-180 1452 426)" stroke="#18FBB7" stroke-width="4"/>
<rect width="28" height="28" transform="matrix(1 0 0 -1 949 131)" fill="white" stroke="#18FBB7" stroke-width="4"/>
<rect width="28" height="28" transform="matrix(1 0 0 -1 1438 131)" fill="white" stroke="#18FBB7" stroke-width="4"/>
<rect width="28" height="28" transform="matrix(1 0 0 -1 1438 440)" fill="white" stroke="#18FBB7" stroke-width="4"/>
<rect width="28" height="28" transform="matrix(1 0 0 -1 949 440)" fill="white" stroke="#18FBB7" stroke-width="4"/>
<g filter="url(#filter0_i)">
<path d="M1111.94 202C1120.22 202 1126.94 208.716 1126.94 217V311.079C1126.94 323.532 1124.18 334.448 1118.67 343.826C1113.23 353.204 1105.34 360.391 1094.99 365.388C1084.65 370.385 1072.41 372.883 1058.29 372.883C1036.99 372.883 1020.45 367.348 1008.67 356.279C996.891 345.133 991 329.912 991 310.618V217C991 208.716 997.716 202 1006 202H1011C1019.29 202 1026 208.716 1026 217V305.198C1026 318.19 1028.57 327.721 1033.71 333.794C1038.84 339.867 1047.34 342.903 1059.2 342.903C1070.67 342.903 1078.98 339.867 1084.12 333.794C1089.33 327.645 1091.93 318.036 1091.93 304.968V217C1091.93 208.716 1098.65 202 1106.93 202H1111.94Z" fill="#18FBB7"/>
<path d="M1202.61 265.505C1202.61 271.762 1207.68 276.833 1213.94 276.833C1225.04 276.833 1233.23 274.95 1238.52 271.183C1243.81 267.417 1246.45 261.498 1246.45 253.426C1246.45 245.432 1243.73 239.743 1238.29 236.361C1232.93 232.979 1224.59 231.288 1213.26 231.288C1207.38 231.288 1202.61 236.055 1202.61 241.936V265.505ZM1214.58 305.89C1207.97 305.89 1202.61 311.252 1202.61 317.866V355.577C1202.61 363.861 1195.89 370.577 1187.61 370.577H1182.49C1174.21 370.577 1167.49 363.861 1167.49 355.577V217C1167.49 208.716 1174.21 202 1182.49 202H1215.75C1238.26 202 1254.91 206.189 1265.71 214.568C1276.51 222.87 1281.91 235.515 1281.91 252.504C1281.91 262.42 1279.23 271.26 1273.86 279.024C1271.64 282.212 1269.03 285.116 1266.04 287.736C1259.07 293.847 1255.76 304.166 1260.89 311.894L1284.36 347.286C1290.97 357.257 1283.82 370.577 1271.86 370.577H1269.25C1264.02 370.577 1259.17 367.858 1256.45 363.399L1224.8 311.621C1222.63 308.061 1218.76 305.89 1214.58 305.89Z" fill="#18FBB7"/>
<path d="M1335.65 370.577C1327.36 370.577 1320.65 363.861 1320.65 355.577V217C1320.65 208.716 1327.36 202 1335.65 202H1340.77C1349.05 202 1355.77 208.716 1355.77 217V326.058C1355.77 334.343 1362.48 341.058 1370.77 341.058H1408.18C1416.33 341.058 1422.94 347.666 1422.94 355.818C1422.94 363.969 1416.33 370.577 1408.18 370.577H1335.65Z" fill="#18FBB7"/>
</g>
</g>
<g filter="url(#filter1_i)">
<path d="M250.949 322.008C250.949 336.961 245.549 348.742 234.75 357.352C224.026 365.961 209.073 370.266 189.891 370.266C172.219 370.266 156.586 366.943 142.992 360.297V327.672C154.169 332.656 163.609 336.168 171.312 338.207C179.091 340.246 186.19 341.266 192.609 341.266C200.312 341.266 206.203 339.793 210.281 336.848C214.435 333.902 216.512 329.522 216.512 323.707C216.512 320.46 215.605 317.59 213.793 315.098C211.98 312.53 209.299 310.076 205.75 307.734C202.276 305.393 195.139 301.655 184.34 296.52C174.22 291.762 166.63 287.193 161.57 282.812C156.51 278.432 152.47 273.335 149.449 267.52C146.428 261.704 144.918 254.908 144.918 247.129C144.918 232.478 149.865 220.961 159.758 212.578C169.727 204.195 183.471 200.004 200.992 200.004C209.602 200.004 217.796 201.023 225.574 203.062C233.428 205.102 241.622 207.971 250.156 211.672L238.828 238.973C229.992 235.348 222.667 232.818 216.852 231.383C211.112 229.948 205.448 229.23 199.859 229.23C193.214 229.23 188.116 230.779 184.566 233.875C181.017 236.971 179.242 241.012 179.242 245.996C179.242 249.092 179.96 251.811 181.395 254.152C182.829 256.418 185.095 258.646 188.191 260.836C191.363 262.951 198.802 266.802 210.508 272.391C225.99 279.792 236.6 287.23 242.34 294.707C248.079 302.108 250.949 311.208 250.949 322.008ZM395.156 368H360.605V294.027C360.605 275.751 353.809 266.613 340.215 266.613C330.548 266.613 323.562 269.898 319.258 276.469C314.953 283.039 312.801 293.688 312.801 308.414V368H278.25V191.734H312.801V227.645C312.801 230.439 312.536 237.009 312.008 247.355L311.215 257.551H313.027C320.73 245.165 332.965 238.973 349.73 238.973C364.608 238.973 375.898 242.975 383.602 250.98C391.305 258.986 395.156 270.465 395.156 285.418V368ZM458.254 304.449C458.254 316.986 460.293 326.464 464.371 332.883C468.525 339.302 475.246 342.512 484.535 342.512C493.749 342.512 500.357 339.34 504.359 332.996C508.438 326.577 510.477 317.061 510.477 304.449C510.477 291.913 508.438 282.51 504.359 276.242C500.281 269.974 493.598 266.84 484.309 266.84C475.095 266.84 468.449 269.974 464.371 276.242C460.293 282.435 458.254 291.837 458.254 304.449ZM545.82 304.449C545.82 325.066 540.383 341.19 529.508 352.82C518.633 364.451 503.491 370.266 484.082 370.266C471.923 370.266 461.199 367.622 451.91 362.336C442.621 356.974 435.484 349.309 430.5 339.34C425.516 329.371 423.023 317.741 423.023 304.449C423.023 283.757 428.423 267.671 439.223 256.191C450.022 244.712 465.202 238.973 484.762 238.973C496.921 238.973 507.645 241.616 516.934 246.902C526.223 252.189 533.359 259.779 538.344 269.672C543.328 279.565 545.82 291.158 545.82 304.449ZM645.055 238.973C649.737 238.973 653.626 239.312 656.723 239.992L654.117 272.391C651.323 271.635 647.924 271.258 643.922 271.258C632.896 271.258 624.286 274.09 618.094 279.754C611.977 285.418 608.918 293.348 608.918 303.543V368H574.367V241.352H600.535L605.633 262.648H607.332C611.259 255.549 616.546 249.848 623.191 245.543C629.913 241.163 637.201 238.973 645.055 238.973ZM733.074 342.738C739.116 342.738 746.366 341.417 754.824 338.773V364.488C746.215 368.34 735.642 370.266 723.105 370.266C709.285 370.266 699.203 366.792 692.859 359.844C686.591 352.82 683.457 342.323 683.457 328.352V267.293H666.918V252.68L685.949 241.125L695.918 214.391H718.008V241.352H753.465V267.293H718.008V328.352C718.008 333.26 719.367 336.885 722.086 339.227C724.88 341.568 728.543 342.738 733.074 342.738ZM860.969 368L854.285 350.781H853.379C847.564 358.107 841.56 363.204 835.367 366.074C829.25 368.868 821.245 370.266 811.352 370.266C799.193 370.266 789.602 366.792 782.578 359.844C775.63 352.896 772.156 343.003 772.156 330.164C772.156 316.721 776.839 306.828 786.203 300.484C795.643 294.065 809.841 290.516 828.797 289.836L850.773 289.156V283.605C850.773 270.767 844.203 264.348 831.062 264.348C820.943 264.348 809.048 267.406 795.379 273.523L783.938 250.188C798.513 242.56 814.674 238.746 832.422 238.746C849.414 238.746 862.441 242.447 871.504 249.848C880.566 257.249 885.098 268.501 885.098 283.605V368H860.969ZM850.773 309.32L837.406 309.773C827.362 310.076 819.885 311.888 814.977 315.211C810.068 318.534 807.613 323.594 807.613 330.391C807.613 340.133 813.202 345.004 824.379 345.004C832.384 345.004 838.766 342.701 843.523 338.094C848.357 333.487 850.773 327.37 850.773 319.742V309.32Z" fill="white"/>
</g>
</g>
<defs>
<filter id="filter0_i" x="991" y="202" width="431.941" height="174.883" filterUnits="userSpaceOnUse" color-interpolation-filters="sRGB">
<feFlood flood-opacity="0" result="BackgroundImageFix"/>
<feBlend mode="normal" in="SourceGraphic" in2="BackgroundImageFix" result="shape"/>
<feColorMatrix in="SourceAlpha" type="matrix" values="0 0 0 0 0 0 0 0 0 0 0 0 0 0 0 0 0 0 127 0" result="hardAlpha"/>
<feOffset dy="4"/>
<feGaussianBlur stdDeviation="2"/>
<feComposite in2="hardAlpha" operator="arithmetic" k2="-1" k3="1"/>
<feColorMatrix type="matrix" values="0 0 0 0 0 0 0 0 0 0 0 0 0 0 0 0 0 0 0.3 0"/>
<feBlend mode="normal" in2="shape" result="effect1_innerShadow"/>
</filter>
<filter id="filter1_i" x="142.992" y="191.734" width="742.105" height="182.531" filterUnits="userSpaceOnUse" color-interpolation-filters="sRGB">
<feFlood flood-opacity="0" result="BackgroundImageFix"/>
<feBlend mode="normal" in="SourceGraphic" in2="BackgroundImageFix" result="shape"/>
<feColorMatrix in="SourceAlpha" type="matrix" values="0 0 0 0 0 0 0 0 0 0 0 0 0 0 0 0 0 0 127 0" result="hardAlpha"/>
<feOffset dy="4"/>
<feGaussianBlur stdDeviation="2"/>
<feComposite in2="hardAlpha" operator="arithmetic" k2="-1" k3="1"/>
<feColorMatrix type="matrix" values="0 0 0 0 0 0 0 0 0 0 0 0 0 0 0 0 0 0 0.5 0"/>
<feBlend mode="normal" in2="shape" result="effect1_innerShadow"/>
</filter>
<linearGradient id="paint0_linear" x1="799.971" y1="169.931" x2="799.971" y2="807.931" gradientUnits="userSpaceOnUse">
<stop stop-color="white"/>
<stop offset="0.35576" stop-color="white" stop-opacity="0"/>
<stop offset="0.710286" stop-color="white" stop-opacity="0"/>
<stop offset="1" stop-color="white"/>
</linearGradient>
<linearGradient id="paint1_linear" x1="800" y1="9" x2="800" y2="969" gradientUnits="userSpaceOnUse">
<stop stop-color="white"/>
<stop offset="0.385265" stop-color="white" stop-opacity="0"/>
<stop offset="0.672451" stop-color="white" stop-opacity="0"/>
<stop offset="1" stop-color="white"/>
</linearGradient>
<linearGradient id="paint2_linear" x1="1326.5" y1="311.5" x2="915" y2="311.5" gradientUnits="userSpaceOnUse">
<stop stop-color="#18FBB7" stop-opacity="0"/>
<stop offset="1" stop-color="#18FBB7"/>
</linearGradient>
<clipPath id="clip0">
<rect width="1600" height="576" rx="25" fill="white"/>
</clipPath>
<clipPath id="clip1">
<rect width="553" height="373" fill="white" transform="matrix(1 0 0 -1 915 474)"/>
</clipPath>
</defs>
</svg>
